<svg role="img" viewBox="0 0 24 24" xmlns="http://www.w3.org/2000/svg" id="Posthog--Streamline-Simple-Icons" height="24" width="24">
  <desc>
    Posthog Streamline Icon: https://streamlinehq.com
  </desc>
  <title>PostHog</title>
  <path d="M9.854 14.5 5 9.647 0.854 5.5A0.5 0.5 0 0 0 0 5.854V8.44a0.5 0.5 0 0 0 0.146 0.353L5 13.647l0.147 0.146L9.854 18.5l0.146 0.147v-0.049c0.065 0.03 0.134 0.049 0.207 0.049h2.586a0.5 0.5 0 0 0 0.353 -0.854L9.854 14.5zm0 -5 -4 -4a0.487 0.487 0 0 0 -0.409 -0.144 0.515 0.515 0 0 0 -0.356 0.21 0.493 0.493 0 0 0 -0.089 0.288V8.44a0.5 0.5 0 0 0 0.147 0.353l9 9a0.5 0.5 0 0 0 0.853 -0.354v-2.585a0.5 0.5 0 0 0 -0.146 -0.354l-5 -5zm1 -4a0.5 0.5 0 0 0 -0.854 0.354V8.44a0.5 0.5 0 0 0 0.147 0.353l4 4a0.5 0.5 0 0 0 0.853 -0.354V9.854a0.5 0.5 0 0 0 -0.146 -0.354l-4 -4zm12.647 11.515a3.863 3.863 0 0 1 -2.232 -1.1l-4.708 -4.707a0.5 0.5 0 0 0 -0.854 0.354v6.585a0.5 0.5 0 0 0 0.5 0.5H23.5a0.5 0.5 0 0 0 0.5 -0.5v-0.6c0 -0.276 -0.225 -0.497 -0.499 -0.532zm-5.394 0.032a0.8 0.8 0 1 1 0 -1.6 0.8 0.8 0 0 1 0 1.6zM0.854 15.5a0.5 0.5 0 0 0 -0.854 0.354v2.293a0.5 0.5 0 0 0 0.5 0.5h2.293c0.222 0 0.39 -0.135 0.462 -0.309a0.493 0.493 0 0 0 -0.109 -0.545L0.854 15.501zM5 14.647 0.854 10.5a0.5 0.5 0 0 0 -0.854 0.353v2.586a0.5 0.5 0 0 0 0.146 0.353L4.854 18.5l0.146 0.147h2.793a0.5 0.5 0 0 0 0.353 -0.854L5 14.647z" fill="#000000" stroke-width="1"></path>
</svg>