<svg xmlns="http://www.w3.org/2000/svg" viewBox="0 0 16 16" id="Stripe--Streamline-Font-Awesome" height="16" width="16">
  <desc>
    Stripe Streamline Icon: https://streamlinehq.com
  </desc>
<!--! Font Awesome Free 6.5.2 by @fontawesome - https://fontawesome.com License - https://fontawesome.com/license/free (Icons: CC BY 4.0, Fonts: SIL OFL 1.1, Code: MIT License) Copyright 2024 Fonticons, Inc.-->
  <path d="m4.2006825 5.27395 -1.0610175 0.22543500000000002 -0.004900000000000001 3.489345c0 0.64445 0.485175 1.061015 1.1296275 1.061015 0.35775500000000005 0 0.619945 -0.06616 0.7645175000000001 -0.1445725v-0.82823c-0.13967000000000002 0.05636 -0.8257775 0.25729 -0.8257775 -0.38471000000000005v-1.54864h0.8257775v-0.926245h-0.8257775Zm2.18329 1.2643975 -0.06616 -0.321h-0.9409475v3.753985h1.08552V7.444987500000001c0.25729 -0.3381525 0.6910075 -0.2719925 0.8306800000000001 -0.227885v-0.9997550000000001c-0.1470225 -0.05146 -0.6542525000000001 -0.14702500000000002 -0.9090925000000001 0.321Zm2.2617025 -1.7716275000000001 -1.09287 0.23278500000000002v0.88704l1.09287 -0.23278750000000004Zm-7.3879025 2.55575c0 -0.1690775 0.1421225 -0.2352375 0.37000750000000004 -0.23768750000000002 0.3308 0 0.7522675 0.10046500000000001 1.0830675 0.2793425v-1.02426c-0.36020500000000005 -0.1421225 -0.7204125000000001 -0.19848 -1.0806175 -0.19848 -0.8821375 0 -1.47023 0.46067250000000004 -1.47023 1.2300925 0 1.2055875 1.6540075000000003 1.0095575 1.6540075000000003 1.5290375 0 0.2009325 -0.173975 0.2670925 -0.4165650000000001 0.2670925 -0.36020500000000005 0 -0.8257775 -0.1494725 -1.190885 -0.347955v0.9801550000000001c0.4043125 0.1739775 0.8135275000000001 0.2474875 1.188435 0.2474875 0.9041925000000002 0 1.5265900000000001 -0.38716 1.5265900000000001 -1.1712825 0 -1.2962525 -1.6638100000000002 -1.0634675 -1.6638100000000002 -1.5535425ZM15.840000000000002 8.1384475c0 -1.1149250000000002 -0.539085 -1.9946125 -1.5731450000000002 -1.9946125s-1.6638100000000002 0.8796875000000001 -1.6638100000000002 1.98726c0 1.310955 0.742465 1.9162 1.8010300000000001 1.9162 0.5194825 0 0.9090925000000001 -0.1176175 1.20559 -0.281795v-0.8184275c-0.2964975 0.1494725 -0.6371000000000001 0.2401375 -1.0683675 0.2401375 -0.42391750000000006 0 -0.796375 -0.1494725 -0.8453825 -0.6591525h2.1293824999999997c0.004900000000000001 -0.05636 0.0147025 -0.284245 0.0147025 -0.38961Zm-2.1538875 -0.411665c0 -0.49007750000000005 0.3013975 -0.69591 0.5733900000000001 -0.69591 0.2670925 0 0.5513375 0.2058325 0.5513375 0.69591Zm-2.76648 -1.5829475000000002c-0.4263675 0 -0.70081 0.2009325 -0.852735 0.34060250000000003l-0.056357500000000005 -0.26954h-0.9581v5.0183825l1.08797 -0.230335 0.0024500000000000004 -1.2300925c0.156825 0.1151675 0.38961 0.27444250000000003 0.7694200000000001 0.27444250000000003 0.7792225 0 1.4898325000000001 -0.5684875 1.4898325000000001 -1.9505050000000002 0.0024500000000000004 -1.2643975 -0.7179625000000001 -1.9529550000000002 -1.4824825000000001 -1.9529550000000002Zm-0.2597425 3.00172c-0.25484 0 -0.40676249999999997 -0.093115 -0.51213 -0.2058325l-0.00735 -1.6172525000000002c0.11271750000000001 -0.12497000000000001 0.2695425 -0.21563500000000002 0.51948 -0.21563500000000002 0.39696250000000005 0 0.671405 0.44597 0.671405 1.0144600000000001 0.0024525000000000003 0.58564 -0.26709 1.02426 -0.671405 1.02426Zm-3.104635 0.8257775h1.0928725000000001V6.217347500000001h-1.0928725000000001Z" fill="#000000" stroke-width="0.025"></path>
</svg>