<svg width="2024" height="1962" viewBox="0 0 2024 1962" fill="none" xmlns="http://www.w3.org/2000/svg">
<g id="Group 1">
<g id="Background">
<path id="Vector" d="M1943.94 0H80C35.8172 0 0 35.8172 0 80V1882C0 1926.18 35.8173 1962 80.0001 1962H1943.94C1988.12 1962 2023.94 1926.18 2023.94 1882V80C2023.94 35.8172 1988.12 0 1943.94 0Z" fill="#0A0A0A"/>
</g>
<g id="Logo">
<g id="Mask group">
<mask id="mask0_310_33" style="mask-type:luminance" maskUnits="userSpaceOnUse" x="1268" y="895" width="533" height="819">
<g id="Group">
<path id="Vector_2" d="M1268.49 915.193C1268.49 904.147 1277.45 895.193 1288.49 895.193H1781C1792.05 895.193 1801 904.147 1801 915.193V1693.93C1801 1704.97 1792.05 1713.93 1781 1713.93H1288.49C1277.45 1713.93 1268.49 1704.97 1268.49 1693.93V915.193Z" fill="white"/>
</g>
</mask>
<g mask="url(#mask0_310_33)">
<g id="Group_2">
<path id="Vector_3" d="M1781.95 1510.65L1444.9 927.007C1437.2 913.672 1417.95 913.677 1410.26 927.017L1277.09 1157.92C1273.52 1164.11 1273.53 1171.73 1277.1 1177.91L1547.25 1645.94C1572.17 1689.16 1617.71 1713.77 1664.59 1713.77C1687.52 1713.77 1710.79 1707.79 1732.08 1695.5C1797.23 1657.92 1819.18 1575.48 1781.95 1510.65Z" fill="white"/>
</g>
</g>
</g>
<g id="Mask group_2">
<g id="Group_3">
<path id="Vector_4" d="M1492.03 559.776L1346.57 820.022L1195.02 1090.91L960.748 1510.04C890.588 1635.65 759.619 1713.78 619.325 1713.78C476.767 1713.78 349.014 1637.66 277.573 1510.04C206.142 1382.73 206.142 1230.16 277.573 1102.54L687.548 369.66C730.024 293.546 806.279 248 891.242 248C976.193 248 1052.45 293.546 1095.26 369.66L1110.05 396.242L1147.06 462.261C1150.46 468.331 1150.46 475.733 1147.07 481.805L1018.43 711.715C1010.8 725.361 991.164 725.362 983.528 711.717L908.708 578.018C901.07 564.369 881.426 564.375 873.796 578.028L505.081 1237.82C470.648 1299.3 493.505 1353.82 505.081 1374.41C516.666 1395.02 550.784 1442.89 619.638 1442.89C666.626 1442.89 710.709 1416.64 733.881 1374.41L1043.77 820.022L1195.34 549.133L1264.84 424.499C1301.21 359.68 1381.34 337.416 1444.08 374.969C1506.82 412.194 1528.38 494.954 1492.03 559.776Z" fill="white"/>
</g>
</g>
</g>
</g>
</svg>
