<svg width="600" height="300" viewBox="0 0 600 300" fill="none" xmlns="http://www.w3.org/2000/svg">
<rect width="600" height="300" fill="#0A1551"/>
<path fill-rule="evenodd" clip-rule="evenodd" d="M381.847 172.131C379.014 172.131 376.315 171.099 374.326 169.1C372.343 167.107 371.004 164.092 371.004 160.016C371.004 155.891 372.344 152.877 374.324 150.899C376.31 148.913 379.008 147.9 381.847 147.9C384.685 147.9 387.383 148.913 389.369 150.899C391.349 152.877 392.69 155.891 392.69 160.016C392.69 164.141 391.349 167.154 389.369 169.133C387.383 171.118 384.685 172.131 381.847 172.131ZM381.847 134.73C367.458 134.73 356.561 145.316 356.561 160.016C356.561 174.62 367.456 185.302 381.847 185.302C396.237 185.302 407.132 174.62 407.132 160.016C407.132 145.316 396.235 134.73 381.847 134.73Z" fill="white"/>
<path fill-rule="evenodd" clip-rule="evenodd" d="M262.202 172.131C259.369 172.131 256.67 171.099 254.681 169.1C252.698 167.107 251.359 164.092 251.359 160.016C251.359 155.891 252.699 152.877 254.679 150.899C256.665 148.913 259.363 147.9 262.202 147.9C265.04 147.9 267.738 148.913 269.724 150.899C271.704 152.877 273.045 155.891 273.045 160.016C273.045 164.141 271.704 167.154 269.724 169.133C267.738 171.118 265.04 172.131 262.202 172.131ZM262.202 134.73C247.813 134.73 236.916 145.316 236.916 160.016C236.916 174.62 247.811 185.302 262.202 185.302C276.592 185.302 287.487 174.62 287.487 160.016C287.487 145.316 276.59 134.73 262.202 134.73Z" fill="white"/>
<path fill-rule="evenodd" clip-rule="evenodd" d="M446.457 185.302H460.813V156.639C460.813 154.284 461.55 152.231 462.851 150.779C464.141 149.339 466.04 148.426 468.513 148.426C471.106 148.426 472.867 149.285 473.997 150.609C475.147 151.957 475.744 153.908 475.744 156.262V185.302H490.006V156.639C490.006 154.334 490.742 152.277 492.037 150.809C493.321 149.354 495.198 148.426 497.613 148.426C500.256 148.426 502.014 149.287 503.129 150.606C504.266 151.95 504.843 153.9 504.843 156.262V185.302H518.824V153.715C518.824 147.274 516.703 142.597 513.37 139.538C510.052 136.494 505.632 135.142 501.18 135.142C498.023 135.142 495.125 135.679 492.523 136.987C490.307 138.1 488.347 139.75 486.637 142.03C483.867 137.525 478.81 135.142 472.831 135.142C468.473 135.142 463.429 136.871 460.25 140.232V136.463H446.457V185.302Z" fill="white"/>
<path fill-rule="evenodd" clip-rule="evenodd" d="M441.054 136.345V150.975L439.933 150.749C438.596 150.479 437.442 150.39 436.375 150.39C433.331 150.39 430.626 151.135 428.685 152.945C426.756 154.743 425.426 157.736 425.426 162.566V185.302H411.109V136.444H425.052V141.017C428.5 136.872 433.855 136.066 437.217 136.066C438.294 136.066 439.269 136.165 440.195 136.258L441.054 136.345Z" fill="white"/>
<path fill-rule="evenodd" clip-rule="evenodd" d="M183.391 161.221L197.315 161.221L197.473 161.375C197.579 161.479 197.653 161.626 197.667 161.791C197.938 164.834 199.135 167.129 200.928 168.658C202.712 170.18 205.021 170.888 207.426 170.888C210.361 170.888 212.762 169.809 214.42 167.933C216.069 166.068 216.928 163.481 216.928 160.549V119.929H231.982V160.969C231.982 174.108 221.911 185.095 207.531 185.095C200.348 185.095 194.324 182.713 190.1 178.579C185.974 174.54 183.509 168.776 183.4 161.772L183.391 161.221Z" fill="white"/>
<path fill-rule="evenodd" clip-rule="evenodd" d="M354.523 126.653L355.318 126.88V115.799L354.952 115.633C354.392 115.379 353.492 115.148 352.452 114.981C351.398 114.811 350.155 114.698 348.889 114.698C343.954 114.698 338.405 116.331 335.532 119.273C332.661 122.213 331.077 126.404 331.077 131.419V133.705H323.865V146.228H331.077V185.295H345.554V146.228H355.318V133.705H345.554V131.595C345.554 129.341 346.342 128.044 347.35 127.289C348.389 126.509 349.754 126.237 351 126.237C352.873 126.237 353.959 126.492 354.523 126.653Z" fill="white"/>
<path fill-rule="evenodd" clip-rule="evenodd" d="M318.685 173.3L319.432 173.072V184.196L319.089 184.363C318.562 184.619 317.716 184.85 316.738 185.019C315.748 185.189 314.58 185.303 313.39 185.303C308.752 185.303 303.566 183.663 300.866 180.709C298.168 177.757 296.68 173.55 296.68 168.516V146.42H289.902V133.862L296.68 133.862V120.286H310.257V133.862L319.432 133.862V146.42L310.257 146.42V168.339C310.257 170.601 310.997 171.903 311.944 172.662C312.92 173.444 314.203 173.718 315.374 173.718C317.134 173.718 318.155 173.462 318.685 173.3Z" fill="white"/>
<path d="M102.762 187.095C104.398 188.664 103.242 191.352 100.919 191.352H86.3789C83.5102 191.352 81.176 189.114 81.176 186.363V172.42C81.176 170.192 83.9792 169.083 85.6154 170.652L102.762 187.095Z" fill="white"/>
<path d="M125.49 188.306C121.186 184.077 121.186 177.219 125.49 172.99L141.022 157.725C145.326 153.496 152.303 153.496 156.607 157.725C160.911 161.955 160.911 168.812 156.607 173.042L141.075 188.306C136.771 192.536 129.793 192.536 125.49 188.306Z" fill="#FFB21D"/>
<path d="M84.4536 149.951C80.1498 145.722 80.1498 138.864 84.4536 134.635L107.798 111.694C112.101 107.464 119.079 107.464 123.383 111.694C127.687 115.923 127.687 122.781 123.383 127.01L100.039 149.951C95.7352 154.181 88.7574 154.181 84.4536 149.951Z" fill="#0099FF"/>
<path d="M105.824 168.273C101.521 164.043 101.521 157.186 105.824 152.956L141.143 118.247C145.447 114.017 152.425 114.017 156.729 118.247C161.033 122.476 161.033 129.334 156.729 133.563L121.41 168.273C117.106 172.502 110.128 172.502 105.824 168.273Z" fill="#FF6100"/>
</svg>
